<?xml version="1.0" encoding="UTF-8" ?>
<!DOCTYPE svg PUBLIC "-//W3C//DTD SVG 1.1//EN" "http://www.w3.org/Graphics/SVG/1.1/DTD/svg11.dtd">
<svg width="800pt" height="800pt" viewBox="0 0 800 800" version="1.1" xmlns="http://www.w3.org/2000/svg">
<g id="#ffffffff">
</g>
<g id="#f15927ff">
<path fill="#f15927" opacity="1.00" d=" M 345.46 219.15 C 375.74 229.06 399.57 254.93 408.66 285.25 C 408.76 286.83 410.29 287.25 411.55 287.60 C 425.67 291.59 439.74 295.77 453.63 300.48 C 459.17 302.41 464.83 304.19 469.99 307.03 C 474.11 310.21 476.83 314.83 480.52 318.47 C 492.40 331.30 508.86 339.56 526.15 341.89 C 537.25 343.76 548.58 343.27 559.70 341.88 C 559.84 356.21 555.89 370.76 547.31 382.37 C 537.44 396.07 522.92 405.47 508.13 413.12 C 489.00 423.06 468.43 430.02 449.65 440.67 C 439.82 446.33 430.11 453.53 425.12 464.04 C 420.96 473.01 421.25 483.28 422.54 492.87 C 427.25 528.40 447.20 563.02 478.98 580.80 C 438.26 576.33 397.99 564.83 362.11 544.84 C 346.67 536.19 332.09 525.94 319.01 514.01 C 311.49 506.81 303.97 499.45 298.13 490.77 C 298.24 503.82 299.57 516.82 299.79 529.87 C 274.44 502.35 261.18 465.05 259.61 427.97 C 259.37 421.44 259.53 414.90 259.72 408.38 C 253.37 414.39 246.80 420.16 240.34 426.05 C 240.63 413.12 244.17 400.47 248.70 388.43 C 262.68 352.44 289.72 322.91 320.89 300.79 C 336.37 290.06 347.10 272.71 349.60 254.03 C 351.42 242.30 349.69 230.18 345.46 219.15 M 522.00 366.78 C 497.42 372.70 472.17 375.04 447.02 376.96 C 425.77 378.94 403.98 380.64 384.12 389.11 C 365.60 396.92 351.40 414.14 347.42 433.85 C 344.43 447.53 346.96 461.76 352.24 474.56 C 352.41 468.26 353.10 461.91 355.12 455.92 C 358.66 444.82 366.49 435.24 376.57 429.43 C 373.55 440.92 371.93 452.91 373.21 464.78 C 374.54 481.57 381.00 497.67 390.30 511.62 C 399.92 525.88 412.32 538.21 426.49 547.96 C 413.38 529.00 402.60 507.39 400.90 484.08 C 400.02 471.37 403.15 458.20 410.74 447.85 C 419.02 436.52 430.96 428.53 443.38 422.36 C 465.05 411.60 488.67 405.05 509.55 392.64 C 522.17 385.27 533.29 374.98 540.26 362.02 C 534.12 363.41 528.15 365.44 522.00 366.78 Z" />
</g>
</svg>
